<mxfile host="app.diagrams.net" modified="2022-04-23T11:23:00.550Z" agent="5.0 (Windows NT 10.0; Win64; x64) AppleWebKit/537.36 (KHTML, like Gecko) Chrome/100.0.4896.127 Safari/537.36 Edg/100.0.1185.44" etag="SUUZdxOuJyqBgkgXSISU" version="17.4.5" type="github">
  <diagram id="3Oa2FU6WdSEPwMQpqXgP" name="Page-1">
    <mxGraphModel dx="1896" dy="576" grid="0" gridSize="10" guides="1" tooltips="1" connect="1" arrows="1" fold="1" page="1" pageScale="1" pageWidth="827" pageHeight="1169" math="0" shadow="0">
      <root>
        <mxCell id="0" />
        <mxCell id="1" parent="0" />
        <mxCell id="fmlWuSDahcp04wz7pV5J-1" value="Realm" style="whiteSpace=wrap;html=1;aspect=fixed;" parent="1" vertex="1">
          <mxGeometry x="-104" y="240.22715539494064" width="81.81724315952503" height="81.81724315952503" as="geometry" />
        </mxCell>
        <mxCell id="fmlWuSDahcp04wz7pV5J-2" value="Normal" style="whiteSpace=wrap;html=1;aspect=fixed;" parent="1" vertex="1">
          <mxGeometry x="40.899135446685875" y="240.22715539494064" width="81.81724315952503" height="81.81724315952503" as="geometry" />
        </mxCell>
        <mxCell id="fmlWuSDahcp04wz7pV5J-3" value="Secure" style="whiteSpace=wrap;html=1;aspect=fixed;" parent="1" vertex="1">
          <mxGeometry x="185.79827089337175" y="240.22715539494064" width="81.81724315952503" height="81.81724315952503" as="geometry" />
        </mxCell>
        <mxCell id="fmlWuSDahcp04wz7pV5J-4" value="Root" style="rounded=0;whiteSpace=wrap;html=1;" parent="1" vertex="1">
          <mxGeometry x="-104" y="362.9530201342282" width="386.39769452449565" height="61.36293236964378" as="geometry" />
        </mxCell>
        <mxCell id="fmlWuSDahcp04wz7pV5J-8" value="" style="endArrow=none;html=1;rounded=0;strokeColor=#000000;shadow=0;sketch=0;fillColor=#e51400;strokeWidth=6;" parent="1" edge="1">
          <mxGeometry width="50" height="50" relative="1" as="geometry">
            <mxPoint x="-104" y="342.49870934434693" as="sourcePoint" />
            <mxPoint x="282.39769452449565" y="342.49870934434693" as="targetPoint" />
          </mxGeometry>
        </mxCell>
        <mxCell id="fmlWuSDahcp04wz7pV5J-11" value="" style="verticalLabelPosition=bottom;shadow=0;dashed=0;align=center;html=1;verticalAlign=top;strokeWidth=6;shape=mxgraph.mockup.markup.line;strokeColor=#000000;rotation=-90;" parent="1" vertex="1">
          <mxGeometry x="-49.6628242074928" y="276.02219927723286" width="132.82420749279538" height="20.45431078988126" as="geometry" />
        </mxCell>
        <mxCell id="fmlWuSDahcp04wz7pV5J-12" value="" style="verticalLabelPosition=bottom;shadow=0;dashed=0;align=center;html=1;verticalAlign=top;strokeWidth=6;shape=mxgraph.mockup.markup.line;strokeColor=#000000;rotation=-90;" parent="1" vertex="1">
          <mxGeometry x="95.23631123919307" y="276.02219927723286" width="132.82420749279538" height="20.45431078988126" as="geometry" />
        </mxCell>
        <mxCell id="fmlWuSDahcp04wz7pV5J-16" value="Secure Monitor" style="rounded=0;whiteSpace=wrap;html=1;" parent="1" vertex="1">
          <mxGeometry x="347.6023054755043" y="362.9530201342282" width="386.39769452449565" height="61.36293236964378" as="geometry" />
        </mxCell>
        <mxCell id="fmlWuSDahcp04wz7pV5J-25" value="Secure" style="rounded=0;whiteSpace=wrap;html=1;" parent="1" vertex="1">
          <mxGeometry x="589.1008645533141" y="240.22715539494064" width="144.89913544668588" height="122.72586473928756" as="geometry" />
        </mxCell>
        <mxCell id="fmlWuSDahcp04wz7pV5J-26" value="Normal" style="rounded=0;whiteSpace=wrap;html=1;" parent="1" vertex="1">
          <mxGeometry x="347.6023054755043" y="240.22715539494064" width="144.89913544668588" height="92.04439855446567" as="geometry" />
        </mxCell>
        <mxCell id="fmlWuSDahcp04wz7pV5J-28" value="" style="edgeStyle=segmentEdgeStyle;endArrow=none;html=1;rounded=0;shadow=0;sketch=0;strokeColor=#000000;strokeWidth=6;endFill=0;" parent="1" edge="1">
          <mxGeometry width="50" height="50" relative="1" as="geometry">
            <mxPoint x="354.8472622478386" y="352.72586473928754" as="sourcePoint" />
            <mxPoint x="535.9711815561959" y="240.22715539494064" as="targetPoint" />
          </mxGeometry>
        </mxCell>
        <mxCell id="Vmmvbk5OUHh-zlz8TvPI-1" value="(a) CCA" style="text;html=1;strokeColor=none;fillColor=none;align=center;verticalAlign=middle;whiteSpace=wrap;rounded=0;" parent="1" vertex="1">
          <mxGeometry x="52.97406340057634" y="430.45224574083636" width="72.44956772334294" height="30.68146618482189" as="geometry" />
        </mxCell>
        <mxCell id="Vmmvbk5OUHh-zlz8TvPI-2" value="(b) TrustZone" style="text;html=1;strokeColor=none;fillColor=none;align=center;verticalAlign=middle;whiteSpace=wrap;rounded=0;" parent="1" vertex="1">
          <mxGeometry x="485.8602305475504" y="430.45224574083636" width="109.88184438040345" height="30.68146618482189" as="geometry" />
        </mxCell>
        <mxCell id="iG4RzA8wXj4Cqr_PJvea-1" value="&lt;font style=&quot;font-size: 19px&quot;&gt;EL3&lt;/font&gt;" style="rounded=1;whiteSpace=wrap;html=1;" parent="1" vertex="1">
          <mxGeometry x="27.616714697406337" y="863.060918946825" width="638.7636887608069" height="109.43056272586475" as="geometry" />
        </mxCell>
        <mxCell id="iG4RzA8wXj4Cqr_PJvea-6" style="edgeStyle=orthogonalEdgeStyle;rounded=0;orthogonalLoop=1;jettySize=auto;html=1;exitX=0.5;exitY=1;exitDx=0;exitDy=0;entryX=0.237;entryY=0.019;entryDx=0;entryDy=0;entryPerimeter=0;fontSize=17;" parent="1" source="iG4RzA8wXj4Cqr_PJvea-2" target="iG4RzA8wXj4Cqr_PJvea-1" edge="1">
          <mxGeometry relative="1" as="geometry" />
        </mxCell>
        <mxCell id="iG4RzA8wXj4Cqr_PJvea-2" value="&lt;font style=&quot;font-size: 17px&quot;&gt;Non-Secure&lt;/font&gt;" style="rounded=1;whiteSpace=wrap;html=1;" parent="1" vertex="1">
          <mxGeometry x="87.99135446685878" y="637.040784718637" width="181.12391930835733" height="61.36293236964378" as="geometry" />
        </mxCell>
        <mxCell id="iG4RzA8wXj4Cqr_PJvea-3" value="&lt;font style=&quot;font-size: 18px&quot;&gt;Realm&lt;/font&gt;" style="rounded=1;whiteSpace=wrap;html=1;" parent="1" vertex="1">
          <mxGeometry x="415.2219020172911" y="637.040784718637" width="181.12391930835733" height="61.36293236964378" as="geometry" />
        </mxCell>
        <mxCell id="iG4RzA8wXj4Cqr_PJvea-8" style="edgeStyle=orthogonalEdgeStyle;rounded=0;orthogonalLoop=1;jettySize=auto;html=1;exitX=0.75;exitY=0;exitDx=0;exitDy=0;entryX=0.5;entryY=1;entryDx=0;entryDy=0;fontSize=17;" parent="1" source="iG4RzA8wXj4Cqr_PJvea-1" target="iG4RzA8wXj4Cqr_PJvea-3" edge="1">
          <mxGeometry relative="1" as="geometry" />
        </mxCell>
        <mxCell id="l4_dy4eYYlAQDKPkVzfR-2" value="&lt;font style=&quot;font-size: 20px&quot;&gt;From Non-Secure World to Realm&lt;/font&gt;" style="text;html=1;strokeColor=none;fillColor=none;align=center;verticalAlign=middle;whiteSpace=wrap;rounded=0;" parent="1" vertex="1">
          <mxGeometry x="149.57348703170027" y="1201.57976251936" width="394.850144092219" height="72.61280330407847" as="geometry" />
        </mxCell>
        <mxCell id="OS-qDNgfLh5rKtzlkYB0-2" value="EL3&lt;br&gt;ARMv8.0" style="rounded=1;whiteSpace=wrap;html=1;" parent="1" vertex="1">
          <mxGeometry x="43.31412103746396" y="1522.7124419204956" width="144.89913544668588" height="61.36293236964378" as="geometry" />
        </mxCell>
        <mxCell id="OS-qDNgfLh5rKtzlkYB0-3" value="S-EL2&lt;br&gt;ARMv8.4" style="rounded=1;whiteSpace=wrap;html=1;" parent="1" vertex="1">
          <mxGeometry x="275.1527377521614" y="1522.7124419204956" width="144.89913544668588" height="61.36293236964378" as="geometry" />
        </mxCell>
        <mxCell id="OS-qDNgfLh5rKtzlkYB0-6" style="edgeStyle=orthogonalEdgeStyle;rounded=0;orthogonalLoop=1;jettySize=auto;html=1;exitX=1;exitY=0.5;exitDx=0;exitDy=0;" parent="1" source="OS-qDNgfLh5rKtzlkYB0-2" target="OS-qDNgfLh5rKtzlkYB0-3" edge="1">
          <mxGeometry relative="1" as="geometry" />
        </mxCell>
        <mxCell id="OS-qDNgfLh5rKtzlkYB0-4" value="CCA&lt;br&gt;ARMv9.2" style="rounded=1;whiteSpace=wrap;html=1;" parent="1" vertex="1">
          <mxGeometry x="506.99135446685875" y="1522.7124419204956" width="144.89913544668588" height="61.36293236964378" as="geometry" />
        </mxCell>
        <mxCell id="OS-qDNgfLh5rKtzlkYB0-7" style="edgeStyle=orthogonalEdgeStyle;rounded=0;orthogonalLoop=1;jettySize=auto;html=1;exitX=1;exitY=0.5;exitDx=0;exitDy=0;entryX=0;entryY=0.5;entryDx=0;entryDy=0;" parent="1" source="OS-qDNgfLh5rKtzlkYB0-3" target="OS-qDNgfLh5rKtzlkYB0-4" edge="1">
          <mxGeometry relative="1" as="geometry" />
        </mxCell>
        <mxCell id="DLShchey9GuV_CfRqUTy-1" value="" style="rounded=1;whiteSpace=wrap;html=1;" vertex="1" parent="1">
          <mxGeometry x="116.97118155619597" y="1923.6169334021683" width="159.38904899135446" height="287.3830665978317" as="geometry" />
        </mxCell>
        <mxCell id="DLShchey9GuV_CfRqUTy-3" value="SOC" style="text;html=1;strokeColor=none;fillColor=none;align=center;verticalAlign=middle;whiteSpace=wrap;rounded=0;" vertex="1" parent="1">
          <mxGeometry x="160.44092219020172" y="1884.753742901394" width="72.44956772334294" height="30.68146618482189" as="geometry" />
        </mxCell>
        <mxCell id="DLShchey9GuV_CfRqUTy-4" value="Secure&lt;br&gt;DRAM" style="text;html=1;strokeColor=none;fillColor=none;align=center;verticalAlign=middle;whiteSpace=wrap;rounded=0;" vertex="1" parent="1">
          <mxGeometry x="467.1440922190201" y="1884.753742901394" width="72.44956772334294" height="30.68146618482189" as="geometry" />
        </mxCell>
        <mxCell id="DLShchey9GuV_CfRqUTy-5" value="CPU" style="rounded=0;whiteSpace=wrap;html=1;" vertex="1" parent="1">
          <mxGeometry x="148.96974063400575" y="1939.9803820340735" width="95.39193083573487" height="27.6133195663397" as="geometry" />
        </mxCell>
        <mxCell id="DLShchey9GuV_CfRqUTy-6" value="" style="rounded=1;whiteSpace=wrap;html=1;" vertex="1" parent="1">
          <mxGeometry x="426.0843515850144" y="1923.6169334021683" width="159.38904899135446" height="287.3830665978317" as="geometry" />
        </mxCell>
        <mxCell id="DLShchey9GuV_CfRqUTy-7" value="" style="rounded=0;whiteSpace=wrap;html=1;" vertex="1" parent="1">
          <mxGeometry x="125.42363112391931" y="1979.8662880743418" width="144.89913544668588" height="202.49767681982448" as="geometry" />
        </mxCell>
        <mxCell id="DLShchey9GuV_CfRqUTy-8" value="OCM" style="text;html=1;strokeColor=none;fillColor=none;align=center;verticalAlign=middle;whiteSpace=wrap;rounded=0;" vertex="1" parent="1">
          <mxGeometry x="160.44092219020172" y="1979.8662880743418" width="72.44956772334294" height="30.68146618482189" as="geometry" />
        </mxCell>
        <mxCell id="DLShchey9GuV_CfRqUTy-9" value="" style="endArrow=none;dashed=1;html=1;rounded=0;exitX=0;exitY=0.5;exitDx=0;exitDy=0;entryX=1;entryY=0.5;entryDx=0;entryDy=0;" edge="1" parent="1" source="DLShchey9GuV_CfRqUTy-7" target="DLShchey9GuV_CfRqUTy-7">
          <mxGeometry width="50" height="50" relative="1" as="geometry">
            <mxPoint x="259.4553314121037" y="2091.3422818791946" as="sourcePoint" />
            <mxPoint x="319.8299711815562" y="2040.2065049044916" as="targetPoint" />
          </mxGeometry>
        </mxCell>
        <mxCell id="DLShchey9GuV_CfRqUTy-10" value="&lt;font style=&quot;font-size: 11px&quot;&gt;Memory&lt;br style=&quot;font-size: 11px&quot;&gt;Protection&lt;/font&gt;" style="rounded=0;whiteSpace=wrap;html=1;fillColor=#dae8fc;strokeColor=#6c8ebf;fontSize=9;" vertex="1" parent="1">
          <mxGeometry x="136.29106628242073" y="2086.2287041817244" width="120.74927953890489" height="25.567888487351578" as="geometry" />
        </mxCell>
        <mxCell id="DLShchey9GuV_CfRqUTy-12" value="" style="rounded=0;whiteSpace=wrap;html=1;fillColor=#dae8fc;strokeColor=#6c8ebf;" vertex="1" parent="1">
          <mxGeometry x="136.29106628242073" y="2119.9783169850284" width="120.74927953890489" height="25.567888487351578" as="geometry" />
        </mxCell>
        <mxCell id="DLShchey9GuV_CfRqUTy-13" value="" style="rounded=0;whiteSpace=wrap;html=1;fillColor=#dae8fc;strokeColor=#6c8ebf;" vertex="1" parent="1">
          <mxGeometry x="136.29106628242073" y="2149.6370676303563" width="120.74927953890489" height="25.567888487351578" as="geometry" />
        </mxCell>
        <mxCell id="DLShchey9GuV_CfRqUTy-17" value="&lt;font style=&quot;font-size: 11px&quot;&gt;OCM-DRAM&lt;br&gt;Channel&lt;br&gt;&lt;/font&gt;" style="text;html=1;strokeColor=none;fillColor=none;align=center;verticalAlign=middle;whiteSpace=wrap;rounded=0;fontSize=11;" vertex="1" parent="1">
          <mxGeometry x="151.37" y="2117.76" width="93" height="30" as="geometry" />
        </mxCell>
        <mxCell id="DLShchey9GuV_CfRqUTy-18" value="Core of Minimal&lt;br&gt;kernel" style="text;html=1;strokeColor=none;fillColor=none;align=center;verticalAlign=middle;whiteSpace=wrap;rounded=0;fontSize=11;" vertex="1" parent="1">
          <mxGeometry x="151.47" y="2148.27" width="91" height="30" as="geometry" />
        </mxCell>
        <mxCell id="DLShchey9GuV_CfRqUTy-19" value="" style="shape=curlyBracket;whiteSpace=wrap;html=1;rounded=1;fontSize=11;" vertex="1" parent="1">
          <mxGeometry x="95" y="2000" width="31" height="81" as="geometry" />
        </mxCell>
        <mxCell id="DLShchey9GuV_CfRqUTy-20" value="" style="rounded=0;whiteSpace=wrap;html=1;fontSize=11;" vertex="1" parent="1">
          <mxGeometry x="439.37" y="1943.71" width="128" height="103" as="geometry" />
        </mxCell>
        <mxCell id="DLShchey9GuV_CfRqUTy-21" value="" style="rounded=0;whiteSpace=wrap;html=1;fontSize=11;" vertex="1" parent="1">
          <mxGeometry x="441.78000000000003" y="2062" width="128" height="103" as="geometry" />
        </mxCell>
        <mxCell id="DLShchey9GuV_CfRqUTy-22" value="TAs" style="text;html=1;strokeColor=none;fillColor=none;align=center;verticalAlign=middle;whiteSpace=wrap;rounded=0;fontSize=11;" vertex="1" parent="1">
          <mxGeometry x="473.37" y="1980.21" width="60" height="30" as="geometry" />
        </mxCell>
        <mxCell id="DLShchey9GuV_CfRqUTy-23" value="Main Kernel" style="text;html=1;strokeColor=none;fillColor=none;align=center;verticalAlign=middle;whiteSpace=wrap;rounded=0;fontSize=11;" vertex="1" parent="1">
          <mxGeometry x="475.78000000000003" y="2098.5" width="60" height="30" as="geometry" />
        </mxCell>
        <mxCell id="DLShchey9GuV_CfRqUTy-24" value="OCM&lt;br&gt;pool" style="text;html=1;strokeColor=none;fillColor=none;align=center;verticalAlign=middle;whiteSpace=wrap;rounded=0;fontSize=11;" vertex="1" parent="1">
          <mxGeometry x="46" y="2025.5" width="60" height="30" as="geometry" />
        </mxCell>
        <mxCell id="DLShchey9GuV_CfRqUTy-25" value="" style="shape=curlyBracket;whiteSpace=wrap;html=1;rounded=1;fontSize=11;" vertex="1" parent="1">
          <mxGeometry x="95.24" y="2081" width="30.76" height="101" as="geometry" />
        </mxCell>
        <mxCell id="DLShchey9GuV_CfRqUTy-26" value="Minimal&lt;br&gt;Kernel" style="text;html=1;strokeColor=none;fillColor=none;align=center;verticalAlign=middle;whiteSpace=wrap;rounded=0;fontSize=11;" vertex="1" parent="1">
          <mxGeometry x="46" y="2116.5" width="60" height="30" as="geometry" />
        </mxCell>
        <mxCell id="DLShchey9GuV_CfRqUTy-27" value="" style="shape=curlyBracket;whiteSpace=wrap;html=1;rounded=1;flipH=1;fontSize=11;" vertex="1" parent="1">
          <mxGeometry x="260" y="2116.91" width="29" height="62.09" as="geometry" />
        </mxCell>
        <mxCell id="DLShchey9GuV_CfRqUTy-28" value="Minimal demand-paging system" style="text;html=1;strokeColor=none;fillColor=none;align=center;verticalAlign=middle;whiteSpace=wrap;rounded=0;fontSize=11;" vertex="1" parent="1">
          <mxGeometry x="286" y="2132.59" width="104.64" height="30" as="geometry" />
        </mxCell>
        <mxCell id="DLShchey9GuV_CfRqUTy-31" value="OCM-DRAM Channel" style="rounded=1;whiteSpace=wrap;html=1;dashed=1;fontSize=11;fillColor=none;" vertex="1" parent="1">
          <mxGeometry x="273" y="2047" width="158.15" height="15" as="geometry" />
        </mxCell>
        <mxCell id="DLShchey9GuV_CfRqUTy-33" value="" style="curved=1;endArrow=classic;html=1;rounded=0;fontSize=11;exitX=1;exitY=0.5;exitDx=0;exitDy=0;entryX=0.5;entryY=1;entryDx=0;entryDy=0;dashed=1;" edge="1" parent="1" source="DLShchey9GuV_CfRqUTy-12" target="DLShchey9GuV_CfRqUTy-31">
          <mxGeometry width="50" height="50" relative="1" as="geometry">
            <mxPoint x="263" y="2131" as="sourcePoint" />
            <mxPoint x="345" y="2082.59" as="targetPoint" />
            <Array as="points">
              <mxPoint x="345" y="2132.59" />
              <mxPoint x="295" y="2082.59" />
            </Array>
          </mxGeometry>
        </mxCell>
        <mxCell id="DLShchey9GuV_CfRqUTy-14" value="" style="rounded=0;whiteSpace=wrap;html=1;fillColor=none;dashed=1;" vertex="1" parent="1">
          <mxGeometry x="132.6685878962536" y="2116.9101703665465" width="128.5979827089337" height="61.36293236964378" as="geometry" />
        </mxCell>
        <mxCell id="DLShchey9GuV_CfRqUTy-34" value="" style="rounded=0;whiteSpace=wrap;html=1;fontSize=11;" vertex="1" parent="1">
          <mxGeometry x="65.80000000000001" y="2529" width="120" height="170" as="geometry" />
        </mxCell>
        <mxCell id="DLShchey9GuV_CfRqUTy-35" value="" style="rounded=0;whiteSpace=wrap;html=1;fontSize=11;" vertex="1" parent="1">
          <mxGeometry x="289" y="2434" width="120" height="265" as="geometry" />
        </mxCell>
        <mxCell id="DLShchey9GuV_CfRqUTy-36" value="" style="rounded=0;whiteSpace=wrap;html=1;fontSize=11;" vertex="1" parent="1">
          <mxGeometry x="510" y="2387" width="120" height="312" as="geometry" />
        </mxCell>
        <mxCell id="DLShchey9GuV_CfRqUTy-37" value="SOC" style="text;html=1;strokeColor=none;fillColor=none;align=center;verticalAlign=middle;whiteSpace=wrap;rounded=0;fontSize=11;" vertex="1" parent="1">
          <mxGeometry x="98.21000000000001" y="2499" width="60" height="30" as="geometry" />
        </mxCell>
        <mxCell id="DLShchey9GuV_CfRqUTy-38" value="TEE Virtual&lt;br&gt;Address Space" style="text;html=1;strokeColor=none;fillColor=none;align=center;verticalAlign=middle;whiteSpace=wrap;rounded=0;fontSize=11;" vertex="1" parent="1">
          <mxGeometry x="306" y="2398" width="86" height="30" as="geometry" />
        </mxCell>
        <mxCell id="DLShchey9GuV_CfRqUTy-39" value="DRAM" style="text;html=1;strokeColor=none;fillColor=none;align=center;verticalAlign=middle;whiteSpace=wrap;rounded=0;fontSize=11;" vertex="1" parent="1">
          <mxGeometry x="527" y="2357" width="86" height="30" as="geometry" />
        </mxCell>
        <mxCell id="DLShchey9GuV_CfRqUTy-40" value="CPU" style="rounded=0;whiteSpace=wrap;html=1;fontSize=11;" vertex="1" parent="1">
          <mxGeometry x="88.99" y="2538" width="78.44" height="25" as="geometry" />
        </mxCell>
        <mxCell id="DLShchey9GuV_CfRqUTy-41" value="" style="rounded=0;whiteSpace=wrap;html=1;fontSize=11;" vertex="1" parent="1">
          <mxGeometry x="88.99" y="2572" width="78.44" height="116" as="geometry" />
        </mxCell>
        <mxCell id="DLShchey9GuV_CfRqUTy-42" value="Page" style="rounded=0;whiteSpace=wrap;html=1;fontSize=11;fillColor=#b1ddf0;strokeColor=#10739e;" vertex="1" parent="1">
          <mxGeometry x="88.99" y="2617" width="78.44" height="25" as="geometry" />
        </mxCell>
        <mxCell id="DLShchey9GuV_CfRqUTy-43" value="OCM" style="text;html=1;strokeColor=none;fillColor=none;align=center;verticalAlign=middle;whiteSpace=wrap;rounded=0;fontSize=11;" vertex="1" parent="1">
          <mxGeometry x="98.21000000000001" y="2572" width="60" height="30" as="geometry" />
        </mxCell>
        <mxCell id="DLShchey9GuV_CfRqUTy-46" value="" style="endArrow=none;html=1;rounded=0;fontSize=11;exitX=0;exitY=0.5;exitDx=0;exitDy=0;entryX=1;entryY=0.5;entryDx=0;entryDy=0;" edge="1" parent="1" source="DLShchey9GuV_CfRqUTy-35" target="DLShchey9GuV_CfRqUTy-35">
          <mxGeometry width="50" height="50" relative="1" as="geometry">
            <mxPoint x="297.6" y="2568" as="sourcePoint" />
            <mxPoint x="347.6" y="2518" as="targetPoint" />
          </mxGeometry>
        </mxCell>
        <mxCell id="DLShchey9GuV_CfRqUTy-47" value="TAs" style="text;html=1;strokeColor=none;fillColor=none;align=center;verticalAlign=middle;whiteSpace=wrap;rounded=0;fontSize=11;" vertex="1" parent="1">
          <mxGeometry x="319" y="2486" width="60" height="30" as="geometry" />
        </mxCell>
        <mxCell id="DLShchey9GuV_CfRqUTy-48" value="Main Kernel" style="text;html=1;strokeColor=none;fillColor=none;align=center;verticalAlign=middle;whiteSpace=wrap;rounded=0;fontSize=11;" vertex="1" parent="1">
          <mxGeometry x="319" y="2576" width="60" height="30" as="geometry" />
        </mxCell>
        <mxCell id="DLShchey9GuV_CfRqUTy-49" value="Minimal Kernel" style="text;html=1;strokeColor=none;fillColor=none;align=center;verticalAlign=middle;whiteSpace=wrap;rounded=0;fontSize=11;" vertex="1" parent="1">
          <mxGeometry x="305.03" y="2669" width="83.93" height="30" as="geometry" />
        </mxCell>
        <mxCell id="DLShchey9GuV_CfRqUTy-50" value="" style="endArrow=none;dashed=1;html=1;rounded=0;fontSize=11;endSize=3;" edge="1" parent="1">
          <mxGeometry width="50" height="50" relative="1" as="geometry">
            <mxPoint x="288" y="2668" as="sourcePoint" />
            <mxPoint x="410" y="2667" as="targetPoint" />
          </mxGeometry>
        </mxCell>
        <mxCell id="DLShchey9GuV_CfRqUTy-51" value="Page" style="rounded=0;whiteSpace=wrap;html=1;fontSize=11;fillColor=#b1ddf0;strokeColor=#10739e;" vertex="1" parent="1">
          <mxGeometry x="309.78000000000003" y="2622" width="78.44" height="25" as="geometry" />
        </mxCell>
        <mxCell id="DLShchey9GuV_CfRqUTy-53" value="" style="curved=1;endArrow=classic;html=1;rounded=0;fontSize=11;endSize=3;exitX=1;exitY=0.5;exitDx=0;exitDy=0;entryX=0;entryY=0.5;entryDx=0;entryDy=0;" edge="1" parent="1" source="DLShchey9GuV_CfRqUTy-40" target="DLShchey9GuV_CfRqUTy-51">
          <mxGeometry width="50" height="50" relative="1" as="geometry">
            <mxPoint x="220.32" y="2606" as="sourcePoint" />
            <mxPoint x="287" y="2593" as="targetPoint" />
            <Array as="points">
              <mxPoint x="218" y="2544" />
              <mxPoint x="237" y="2582" />
              <mxPoint x="256" y="2608" />
            </Array>
          </mxGeometry>
        </mxCell>
        <mxCell id="DLShchey9GuV_CfRqUTy-54" value="1" style="ellipse;whiteSpace=wrap;html=1;aspect=fixed;fontSize=11;" vertex="1" parent="1">
          <mxGeometry x="237" y="2563" width="18" height="18" as="geometry" />
        </mxCell>
        <mxCell id="DLShchey9GuV_CfRqUTy-56" value="Page" style="rounded=0;whiteSpace=wrap;html=1;fontSize=11;fillColor=#b1ddf0;strokeColor=#10739e;" vertex="1" parent="1">
          <mxGeometry x="527" y="2656" width="78.44" height="25" as="geometry" />
        </mxCell>
        <mxCell id="DLShchey9GuV_CfRqUTy-57" value="" style="curved=1;endArrow=classic;html=1;rounded=0;fontSize=11;endSize=3;exitX=0;exitY=0.5;exitDx=0;exitDy=0;entryX=1;entryY=0.5;entryDx=0;entryDy=0;" edge="1" parent="1" source="DLShchey9GuV_CfRqUTy-56" target="DLShchey9GuV_CfRqUTy-42">
          <mxGeometry width="50" height="50" relative="1" as="geometry">
            <mxPoint x="400" y="2748" as="sourcePoint" />
            <mxPoint x="201" y="2662" as="targetPoint" />
            <Array as="points">
              <mxPoint x="439" y="2739" />
              <mxPoint x="364" y="2743" />
              <mxPoint x="292" y="2734" />
              <mxPoint x="251" y="2704" />
            </Array>
          </mxGeometry>
        </mxCell>
        <mxCell id="DLShchey9GuV_CfRqUTy-58" value="2" style="ellipse;whiteSpace=wrap;html=1;aspect=fixed;fontSize=11;" vertex="1" parent="1">
          <mxGeometry x="352" y="2716" width="18" height="18" as="geometry" />
        </mxCell>
        <mxCell id="DLShchey9GuV_CfRqUTy-59" value="" style="curved=1;endArrow=classic;html=1;rounded=0;fontSize=11;endSize=3;entryX=1;entryY=0.5;entryDx=0;entryDy=0;exitX=0;exitY=0.75;exitDx=0;exitDy=0;" edge="1" parent="1" source="DLShchey9GuV_CfRqUTy-51" target="DLShchey9GuV_CfRqUTy-42">
          <mxGeometry width="50" height="50" relative="1" as="geometry">
            <mxPoint x="226" y="2579" as="sourcePoint" />
            <mxPoint x="176" y="2629" as="targetPoint" />
            <Array as="points">
              <mxPoint x="226" y="2663" />
            </Array>
          </mxGeometry>
        </mxCell>
        <mxCell id="DLShchey9GuV_CfRqUTy-60" value="3" style="ellipse;whiteSpace=wrap;html=1;aspect=fixed;fontSize=11;" vertex="1" parent="1">
          <mxGeometry x="232.89" y="2629" width="18" height="18" as="geometry" />
        </mxCell>
        <mxCell id="DLShchey9GuV_CfRqUTy-62" value="" style="curved=1;endArrow=none;html=1;rounded=0;fontSize=11;endSize=3;exitX=0;exitY=0.75;exitDx=0;exitDy=0;entryX=1;entryY=0.75;entryDx=0;entryDy=0;startArrow=classic;startFill=1;endFill=0;" edge="1" parent="1" source="DLShchey9GuV_CfRqUTy-56" target="DLShchey9GuV_CfRqUTy-42">
          <mxGeometry width="50" height="50" relative="1" as="geometry">
            <mxPoint x="537" y="2678.5" as="sourcePoint" />
            <mxPoint x="177.42999999999984" y="2639.4999999999995" as="targetPoint" />
            <Array as="points">
              <mxPoint x="454" y="2754" />
              <mxPoint x="412" y="2772" />
              <mxPoint x="366" y="2775" />
              <mxPoint x="297" y="2769" />
              <mxPoint x="232" y="2733" />
            </Array>
          </mxGeometry>
        </mxCell>
        <mxCell id="DLShchey9GuV_CfRqUTy-64" value="5" style="ellipse;whiteSpace=wrap;html=1;aspect=fixed;fontSize=11;" vertex="1" parent="1">
          <mxGeometry x="329.32" y="2751" width="18" height="18" as="geometry" />
        </mxCell>
        <mxCell id="DLShchey9GuV_CfRqUTy-65" value="" style="curved=1;endArrow=classic;html=1;rounded=0;fontSize=11;endSize=3;exitX=1;exitY=0.5;exitDx=0;exitDy=0;entryX=1;entryY=0.5;entryDx=0;entryDy=0;" edge="1" parent="1" source="DLShchey9GuV_CfRqUTy-40" target="DLShchey9GuV_CfRqUTy-42">
          <mxGeometry width="50" height="50" relative="1" as="geometry">
            <mxPoint x="178.57000000000028" y="2564.5" as="sourcePoint" />
            <mxPoint x="228.57000000000028" y="2614.5" as="targetPoint" />
            <Array as="points">
              <mxPoint x="219.00000000000028" y="2559.5" />
              <mxPoint x="191" y="2620" />
            </Array>
          </mxGeometry>
        </mxCell>
        <mxCell id="DLShchey9GuV_CfRqUTy-66" value="4" style="ellipse;whiteSpace=wrap;html=1;aspect=fixed;fontSize=11;" vertex="1" parent="1">
          <mxGeometry x="200" y="2599" width="18" height="18" as="geometry" />
        </mxCell>
        <mxCell id="DLShchey9GuV_CfRqUTy-69" value="" style="endArrow=none;html=1;rounded=0;fontSize=11;endSize=3;exitX=0.001;exitY=0.393;exitDx=0;exitDy=0;exitPerimeter=0;entryX=1.007;entryY=0.396;entryDx=0;entryDy=0;entryPerimeter=0;" edge="1" parent="1" source="DLShchey9GuV_CfRqUTy-36" target="DLShchey9GuV_CfRqUTy-36">
          <mxGeometry width="50" height="50" relative="1" as="geometry">
            <mxPoint x="530" y="2539" as="sourcePoint" />
            <mxPoint x="580" y="2489" as="targetPoint" />
          </mxGeometry>
        </mxCell>
        <mxCell id="DLShchey9GuV_CfRqUTy-70" value="" style="shape=curlyBracket;whiteSpace=wrap;html=1;rounded=1;flipH=1;fontSize=11;" vertex="1" parent="1">
          <mxGeometry x="630" y="2387" width="20" height="124" as="geometry" />
        </mxCell>
        <mxCell id="DLShchey9GuV_CfRqUTy-71" value="" style="shape=curlyBracket;whiteSpace=wrap;html=1;rounded=1;flipH=1;fontSize=11;" vertex="1" parent="1">
          <mxGeometry x="630" y="2511" width="20" height="188" as="geometry" />
        </mxCell>
        <mxCell id="DLShchey9GuV_CfRqUTy-72" value="Normal&lt;br&gt;World" style="text;html=1;strokeColor=none;fillColor=none;align=center;verticalAlign=middle;whiteSpace=wrap;rounded=0;fontSize=11;" vertex="1" parent="1">
          <mxGeometry x="662" y="2434" width="60" height="30" as="geometry" />
        </mxCell>
        <mxCell id="DLShchey9GuV_CfRqUTy-73" value="Secure&lt;br&gt;World" style="text;html=1;strokeColor=none;fillColor=none;align=center;verticalAlign=middle;whiteSpace=wrap;rounded=0;fontSize=11;" vertex="1" parent="1">
          <mxGeometry x="662" y="2590" width="60" height="30" as="geometry" />
        </mxCell>
      </root>
    </mxGraphModel>
  </diagram>
</mxfile>
